{"asset":{"version":"2.0","generator":"THREE.GLTFExporter"},"scenes":[{"name":"default","nodes":[0,1]}],"scene":0,"nodes":[{"matrix":[1,0,0,0,0,1,0,0,0,0,1,0,4.75,-0.5000001192092896,-1.9997997283935547,1],"name":"level_mesh","extras":{"data":{"name":"level_mesh","points":[{"name":"Origin","pos":{"x":0,"y":0,"z":0}}],"billboard":{"enabled":false,"y":false},"custom":[{"name":"gt-ignore","uuid":"384FF329-DFAC-4D19-A9F6-9DB0C645B335","type":"object","valueType":"string","value":""}],"instance":{"name":"level_mesh","uuid":"E593D83B-419C-4688-8BFC-49EEE96FE52C","parent":null,"pos":{"x":4.75,"y":-0.5,"z":-2},"rot":{"x":0,"y":0,"z":0,"order":"XYZ"},"sca":{"x":1,"y":1,"z":1},"custom":[]}}},"mesh":0},{"matrix":[1,0,0,0,0,1,0,0,0,0,1,0,4.75,-0.5000001192092896,-1.9997997283935547,1],"name":"collisions-colonly","extras":{"data":{"name":"collisions","points":[{"name":"Origin","pos":{"x":0,"y":0,"z":0}}],"billboard":{"enabled":false,"y":false},"custom":[{"name":"gt-ignore","uuid":"38B5C622-5A67-46C6-9814-3828C6EB62E9","type":"object","valueType":"string","value":""}],"instance":{"name":"collisions-colonly","uuid":"715716AA-019D-42B2-BA1F-9066113F2CF5","parent":null,"pos":{"x":4.75,"y":-0.5,"z":-2},"rot":{"x":0,"y":0,"z":0,"order":"XYZ"},"sca":{"x":1,"y":1,"z":1},"custom":[]}}},"mesh":1}],"bufferViews":[{"buffer":0,"byteOffset":0,"byteLength":13968,"target":34962,"byteStride":12},{"buffer":0,"byteOffset":13968,"byteLength":13968,"target":34962,"byteStride":12},{"buffer":0,"byteOffset":27936,"byteLength":9312,"target":34962,"byteStride":8},{"buffer":0,"byteOffset":37248,"byteLength":13968,"target":34962,"byteStride":12},{"buffer":0,"byteOffset":51216,"byteLength":9312,"target":34962,"byteStride":8},{"buffer":0,"byteOffset":60528,"byteLength":2328,"target":34963},{"buffer":0,"byteOffset":62856,"byteLength":1368,"target":34962,"byteStride":12},{"buffer":0,"byteOffset":64224,"byteLength":1368,"target":34962,"byteStride":12},{"buffer":0,"byteOffset":65592,"byteLength":912,"target":34962,"byteStride":8},{"buffer":0,"byteOffset":66504,"byteLength":1368,"target":34962,"byteStride":12},{"buffer":0,"byteOffset":67872,"byteLength":912,"target":34962,"byteStride":8},{"buffer":0,"byteOffset":68784,"byteLength":228,"target":34963}],"buffers":[{"byteLength":69012,"uri":"data:application/octet-stream;base64,"}],"accessors":[{"bufferView":0,"componentType":5126,"count":1164,"max":[0,2.5003929138183594,5.249799728393555],"min":[-9.5,-3.5,-2.000150203704834],"type":"VEC3"},{"bufferView":1,"componentType":5126,"count":1164,"max":[1,1,1],"min":[-1,-0.000035579691029852256,-0.000322125997627154],"type":"VEC3"},{"bufferView":2,"componentType":5126,"count":1164,"max":[1,1],"min":[0,0],"type":"VEC2"},{"bufferView":3,"componentType":5126,"count":1164,"max":[1,1,1],"min":[1,1,1],"type":"VEC3"},{"bufferView":4,"componentType":5126,"count":1164,"max":[-1,0],"min":[-1,0],"type":"VEC2"},{"bufferView":5,"componentType":5123,"count":1164,"max":[1163],"min":[0],"type":"SCALAR"},{"bufferView":6,"componentType":5126,"count":114,"max":[-0.25,8.500028610229492,4.999899864196777],"min":[-9.25,0.499891996383667,-2.0002503395080566],"type":"VEC3"},{"bufferView":7,"componentType":5126,"count":114,"max":[1,1,1],"min":[-1,-0.000024974546249723062,-1],"type":"VEC3"},{"bufferView":8,"componentType":5126,"count":114,"max":[0.5,0.5],"min":[0,0],"type":"VEC2"},{"bufferView":9,"componentType":5126,"count":114,"max":[1,1,1],"min":[1,1,1],"type":"VEC3"},{"bufferView":10,"componentType":5126,"count":114,"max":[-1,0],"min":[-1,0],"type":"VEC2"},{"bufferView":11,"componentType":5123,"count":114,"max":[113],"min":[0],"type":"SCALAR"}],"materials":[{"pbrMetallicRoughness":{"metallicFactor":0,"roughnessFactor":0.9,"baseColorTexture":{"index":0}},"alphaMode":"MASK","alphaCutoff":0.01,"extensions":{"KHR_materials_unlit":{}}}],"textures":[{"sampler":0,"source":0}],"samplers":[{"magFilter":9728,"minFilter":9728,"wrapS":33071,"wrapT":33071}],"images":[{"mimeType":"image/png","uri":"data:image/png;base64,"}],"meshes":[{"primitives":[{"mode":4,"attributes":{"POSITION":0,"NORMAL":1,"TEXCOORD_0":2,"COLOR_0":3,"_UVANIMATION":4},"indices":5,"material":0}]},{"primitives":[{"mode":4,"attributes":{"POSITION":6,"NORMAL":7,"TEXCOORD_0":8,"COLOR_0":9,"_UVANIMATION":10},"indices":11,"material":0}]}],"extensionsUsed":["KHR_materials_unlit"]}